<svg width="41" height="11" viewBox="0 0 41 11" fill="none" xmlns="http://www.w3.org/2000/svg">
<path d="M7.23393 3.5C7.13237 3.18916 6.99849 2.91063 6.8323 2.66442C6.66918 2.41513 6.47375 2.20277 6.24601 2.02734C6.02134 1.85192 5.76589 1.71804 5.47967 1.62571C5.19345 1.53338 4.87953 1.48722 4.53791 1.48722C3.97778 1.48722 3.46842 1.63187 3.00985 1.92116C2.55128 2.21046 2.18658 2.63672 1.91575 3.19993C1.64492 3.76314 1.5095 4.45407 1.5095 5.27273C1.5095 6.09138 1.64645 6.78232 1.92037 7.34553C2.19428 7.90874 2.56513 8.33499 3.03294 8.62429C3.50074 8.91359 4.02702 9.05824 4.61177 9.05824C5.15344 9.05824 5.63047 8.94283 6.04288 8.712C6.45836 8.4781 6.78152 8.14879 7.01234 7.72408C7.24624 7.29628 7.36319 6.79309 7.36319 6.21449L7.71405 6.28835H4.87029V5.27273H8.47115V6.28835C8.47115 7.067 8.30495 7.74408 7.97257 8.3196C7.64326 8.89512 7.18777 9.34138 6.60609 9.65838C6.02749 9.9723 5.36272 10.1293 4.61177 10.1293C3.77465 10.1293 3.03909 9.93229 2.4051 9.53835C1.77418 9.14441 1.28175 8.58428 0.927823 7.85795C0.576971 7.13163 0.401545 6.26989 0.401545 5.27273C0.401545 4.52486 0.501568 3.85239 0.701616 3.25533C0.904741 2.65518 1.19096 2.14429 1.56028 1.72266C1.9296 1.30102 2.36663 0.977865 2.87136 0.753196C3.3761 0.528527 3.93161 0.416193 4.53791 0.416193C5.03649 0.416193 5.50121 0.491595 5.93208 0.6424C6.36603 0.790127 6.75228 1.00095 7.09082 1.27486C7.43244 1.54569 7.71712 1.87038 7.94487 2.24893C8.17262 2.62441 8.32958 3.04143 8.41575 3.5H7.23393ZM10.7286 10V2.90909H11.8181V10H10.7286ZM11.2826 1.72727C11.0702 1.72727 10.8871 1.65495 10.7332 1.5103C10.5824 1.36565 10.507 1.19176 10.507 0.988636C10.507 0.785511 10.5824 0.611624 10.7332 0.466974C10.8871 0.322325 11.0702 0.25 11.2826 0.25C11.4949 0.25 11.6765 0.322325 11.8273 0.466974C11.9812 0.611624 12.0581 0.785511 12.0581 0.988636C12.0581 1.19176 11.9812 1.36565 11.8273 1.5103C11.6765 1.65495 11.4949 1.72727 11.2826 1.72727ZM16.8974 2.90909V3.83239H13.2227V2.90909H16.8974ZM14.2937 1.21023H15.3832V7.96875C15.3832 8.27652 15.4278 8.50734 15.517 8.66122C15.6094 8.81203 15.7263 8.91359 15.8679 8.96591C16.0125 9.01515 16.1649 9.03977 16.3249 9.03977C16.445 9.03977 16.5434 9.03362 16.6204 9.02131C16.6973 9.00592 16.7589 8.99361 16.805 8.98438L17.0266 9.96307C16.9528 9.99077 16.8497 10.0185 16.7173 10.0462C16.585 10.0769 16.4173 10.0923 16.2141 10.0923C15.9064 10.0923 15.6048 10.0262 15.3093 9.89382C15.0169 9.76148 14.7738 9.5599 14.5799 9.28906C14.3891 9.01823 14.2937 8.67661 14.2937 8.2642V1.21023ZM19.7781 5.73438V10H18.6886V0.545454H19.7781V4.01705H19.8704C20.0366 3.6508 20.2859 3.35997 20.6183 3.14453C20.9537 2.92602 21.4 2.81676 21.957 2.81676C22.4402 2.81676 22.8634 2.91371 23.2266 3.1076C23.5897 3.29841 23.8713 3.59233 24.0714 3.98935C24.2745 4.38329 24.3761 4.88494 24.3761 5.49432V10H23.2866V5.56818C23.2866 5.00497 23.1404 4.56948 22.848 4.26172C22.5587 3.95088 22.1571 3.79545 21.6431 3.79545C21.2861 3.79545 20.966 3.87086 20.6829 4.02166C20.4028 4.17247 20.1812 4.39252 20.0181 4.68182C19.8581 4.97112 19.7781 5.32197 19.7781 5.73438ZM30.838 7.10085V2.90909H31.9275V10H30.838V8.79972H30.7641C30.5979 9.1598 30.3394 9.46603 29.9885 9.71839C29.6377 9.96768 29.1945 10.0923 28.659 10.0923C28.2158 10.0923 27.8219 9.99538 27.4772 9.80149C27.1325 9.60452 26.8617 9.30907 26.6647 8.91513C26.4677 8.51811 26.3692 8.01799 26.3692 7.41477V2.90909H27.4587V7.34091C27.4587 7.85795 27.6034 8.27036 27.8927 8.57812C28.185 8.88589 28.5574 9.03977 29.0099 9.03977C29.2807 9.03977 29.5561 8.97053 29.8362 8.83203C30.1193 8.69354 30.3563 8.48118 30.5471 8.19496C30.741 7.90874 30.838 7.54403 30.838 7.10085ZM34.0707 10V0.545454H35.1602V4.03551H35.2525C35.3325 3.91241 35.4433 3.75544 35.5849 3.56463C35.7295 3.37074 35.9357 3.19839 36.2035 3.04759C36.4743 2.8937 36.8406 2.81676 37.3022 2.81676C37.8993 2.81676 38.4255 2.96603 38.881 3.26456C39.3365 3.56309 39.692 3.98627 39.9474 4.53409C40.2029 5.08191 40.3306 5.72822 40.3306 6.47301C40.3306 7.22396 40.2029 7.87488 39.9474 8.42578C39.692 8.9736 39.3381 9.39832 38.8857 9.69993C38.4332 9.99846 37.9116 10.1477 37.3207 10.1477C36.8652 10.1477 36.5005 10.0723 36.2266 9.92152C35.9527 9.76764 35.7418 9.59375 35.5941 9.39986C35.4464 9.20289 35.3325 9.03977 35.2525 8.91051H35.1232V10H34.0707ZM35.1417 6.45455C35.1417 6.99006 35.2202 7.46248 35.3771 7.8718C35.5341 8.27805 35.7634 8.59659 36.065 8.82741C36.3666 9.05516 36.7359 9.16903 37.1729 9.16903C37.6284 9.16903 38.0085 9.04901 38.3132 8.80895C38.621 8.56581 38.8518 8.23958 39.0057 7.83026C39.1626 7.41785 39.2411 6.95928 39.2411 6.45455C39.2411 5.95597 39.1642 5.50663 39.0103 5.10653C38.8595 4.70336 38.6302 4.38482 38.3224 4.15092C38.0178 3.91394 37.6346 3.79545 37.1729 3.79545C36.7298 3.79545 36.3574 3.90779 36.0558 4.13246C35.7541 4.35405 35.5264 4.66489 35.3725 5.06499C35.2186 5.462 35.1417 5.92519 35.1417 6.45455Z" fill="white"/>
</svg>
